<svg xmlns="http://www.w3.org/2000/svg" width="1024" height="1024" viewBox="0 0 1024 1024">
  <rect width="1024" height="1024" rx="224" fill="#F4EFE4"/>
  <g transform="matrix(1.4 0 0 1.4 -204.8 -208.4)">
    <g fill="#0E5A56">
      <path d="M239 394 L252 356 L265 394 L263 712 L241 712 Z"/>
      <path d="M291 406 L302 372 L313 406 L311 712 L293 712 Z"/>
      <path d="M711 406 L722 372 L733 406 L731 712 L713 712 Z"/>
      <path d="M759 394 L772 356 L785 394 L783 712 L761 712 Z"/>
      <rect x="326" y="506" width="372" height="206" rx="12"/>
      <path d="M338 508 C338 458 374 436 432 436 L432 508 Z"/>
      <path d="M686 508 C686 458 650 436 592 436 L592 508 Z"/>
      <path d="M408 508 C408 430 452 396 512 396 C572 396 616 430 616 508 Z"/>
    </g>
    <g fill="#C8A24B">
      <circle cx="252" cy="350" r="6"/><circle cx="302" cy="366" r="5"/>
      <circle cx="722" cy="366" r="5"/><circle cx="772" cy="350" r="6"/>
    </g>
    <circle cx="512" cy="360" r="30" fill="#C8A24B"/>
    <circle cx="523" cy="353" r="23" fill="#F4EFE4"/>
    <g fill="#F4EFE4">
      <path d="M338 560 L338 528 Q338 518 352 518 Q366 518 366 528 L366 560 Z"/>
      <path d="M391 560 L391 528 Q391 518 405 518 Q419 518 419 528 L419 560 Z"/>
      <path d="M445 560 L445 528 Q445 518 459 518 Q473 518 473 528 L473 560 Z"/>
      <path d="M498 560 L498 528 Q498 518 512 518 Q526 518 526 528 L526 560 Z"/>
      <path d="M551 560 L551 528 Q551 518 565 518 Q579 518 579 528 L579 560 Z"/>
      <path d="M605 560 L605 528 Q605 518 619 518 Q633 518 633 528 L633 560 Z"/>
      <path d="M658 560 L658 528 Q658 518 672 518 Q686 518 686 528 L686 560 Z"/>
    </g>
    <path d="M444 712 L444 608 Q444 578 512 566 Q580 578 580 608 L580 712 Z" fill="#C8A24B"/>
  </g>
</svg>
